<?xml version="1.0" encoding="utf-8"?>
<!-- Generator: Adobe Illustrator 24.1.2, SVG Export Plug-In . SVG Version: 6.00 Build 0)  -->
<svg version="1.1" id="Слой_1" xmlns="http://www.w3.org/2000/svg" xmlns:xlink="http://www.w3.org/1999/xlink" x="0px" y="0px"
	 viewBox="0 0 284.4 235.5" style="enable-background:new 0 0 284.4 235.5;" xml:space="preserve">
<style type="text/css">
	.st0{fill:#3C3C3B;}
	.st1{fill:#3C3C3B;stroke:#000000;stroke-miterlimit:10;}
	.st2{stroke:#000000;stroke-miterlimit:10;}
	.st3{fill:none;stroke:#000000;stroke-miterlimit:10;}
	.st4{stroke:#000000;stroke-width:0.9981;stroke-miterlimit:10;}
	.st5{fill:#FFFFFF;stroke:#000000;stroke-width:1.0232;stroke-miterlimit:10;}
	.st6{fill:#FFFFFF;stroke:#000000;stroke-width:0.9403;stroke-miterlimit:10;}
	.st7{font-family:'v_ALoveOfThunder';}
	.st8{font-size:31.7097px;}
	.st9{fill:none;stroke:#3C3C3B;stroke-miterlimit:10;}
	.st10{stroke:#000000;stroke-width:0.632;stroke-miterlimit:10;}
	.st11{fill:#3C3C3B;stroke:#000000;stroke-width:0.4149;stroke-miterlimit:10;}
	.st12{fill:#3C3C3B;stroke:#000000;stroke-width:0.5401;stroke-miterlimit:10;}
</style>
<path class="st0" d="M59.18,24.99c-0.08,0-0.15,0.01-0.23,0.01v2.81c3.97,0,7.19,3.22,7.19,7.19h3.05
	C69.2,29.47,64.72,24.99,59.18,24.99z"/>
<rect x="61.11" y="34.59" width="13.8" height="55.43"/>
<rect x="240.51" y="81.99" class="st1" width="22.95" height="41.1"/>
<path class="st1" d="M123.36,142.29H20.31v-37.33c0-10.77,7.72-20,18.32-21.9l84.73-12.47V142.29z"/>
<path class="st2" d="M60.2,142.29H20.45v-38.39c0-0.75,0.61-1.36,1.36-1.36h28.81c5.29,0,9.58,4.29,9.58,9.58V142.29z"/>
<path class="st1" d="M240.51,142.29H123.36V27.99c0-9.28,7.52-16.8,16.8-16.8h83.54c9.28,0,16.8,7.52,16.8,16.8V142.29z"/>
<circle class="st1" cx="214.71" cy="125.64" r="42.75"/>
<path class="st2" d="M214.71,74.34c-28.33,0-51.3,22.97-51.3,51.3h8.42c0-23.68,19.2-42.88,42.88-42.88s42.88,19.2,42.88,42.88h8.42
	C266.01,97.31,243.04,74.34,214.71,74.34z"/>
<circle class="st1" cx="39.74" cy="142.29" r="26.1"/>
<path class="st1" d="M152.99,106.44h-17.55c-1.95,0-3.53,1.58-3.53,3.53v28.8c0,1.95,1.58,3.52,3.53,3.52h17.55
	c1.95,0,3.52-1.58,3.52-3.52v-28.8C156.51,108.02,154.93,106.44,152.99,106.44z"/>
<path class="st3" d="M156.51,106.44"/>
<path class="st3" d="M131.91,106.44"/>
<line class="st3" x1="131.91" y1="119.49" x2="156.51" y2="119.49"/>
<line class="st3" x1="131.91" y1="132.54" x2="156.51" y2="132.54"/>
<path class="st3" d="M124.06,23.19"/>
<path class="st3" d="M131.91,23.19"/>
<circle class="st2" cx="39.74" cy="142.29" r="14.29"/>
<circle class="st2" cx="214.71" cy="125.64" r="22.8"/>
<path class="st2" d="M214.71,70.59c3.23,0,6.4,0.27,9.49,0.79c1.63,0.27,3.11-0.96,3.11-2.61V27.31c0-2.28-1.85-4.13-4.13-4.13
	h-91.27v79.35h26.91c2.45,0,4.68-1.33,5.93-3.44C174.86,82.03,193.44,70.59,214.71,70.59z"/>
<path class="st4" d="M123.36,102.54h8.55V23.19h-4.36c-2.32,0-4.19,1.88-4.19,4.19V102.54z"/>
<path class="st5" d="M211.98,68.14c3.13,0,6.19,0.24,9.18,0.69c1.57,0.24,3.01-0.85,3.01-2.31V29.88c0-2.01-1.79-3.65-3.99-3.65
	h-88.27v70.16h26.02c2.37,0,4.53-1.18,5.73-3.05C173.44,78.26,191.42,68.14,211.98,68.14z"/>
<path class="st6" d="M128.46,26.23h2.87c0.32,0,0.58,0.26,0.58,0.58v68.99c0,0.32-0.26,0.58-0.58,0.58h-7.39
	c-0.32,0-0.58-0.26-0.58-0.58V31.33C123.36,28.51,125.64,26.23,128.46,26.23z"/>
<line class="st3" x1="191.91" y1="26.23" x2="191.91" y2="70.92"/>
<line class="st3" x1="196.41" y1="26.23" x2="196.41" y2="69.52"/>
<text transform="matrix(1 0 0 1 13.6362 201.2428)" class="st7 st8">Наше будущее</text>
<line class="st9" x1="20.09" y1="110.86" x2="60.11" y2="110.87"/>
<line class="st9" x1="20.31" y1="114.63" x2="60.33" y2="114.63"/>
<polygon class="st2" points="191.91,71.33 196.41,69.83 196.41,26.23 191.91,26.23 "/>
<path class="st10" d="M71.84,98.63L71.84,98.63c-0.99,0-1.8-0.81-1.8-1.8V85.72c0-0.99,0.81-1.8,1.8-1.8h0c0.99,0,1.8,0.81,1.8,1.8
	v11.12C73.64,97.83,72.83,98.63,71.84,98.63z"/>
<path class="st10" d="M77.93,98.63L77.93,98.63c-0.99,0-1.8-0.81-1.8-1.8V85.72c0-0.99,0.81-1.8,1.8-1.8h0c0.99,0,1.8,0.81,1.8,1.8
	v11.12C79.72,97.83,78.92,98.63,77.93,98.63z"/>
<path class="st10" d="M84.15,98.63L84.15,98.63c-0.99,0-1.8-0.81-1.8-1.8V85.72c0-0.99,0.81-1.8,1.8-1.8l0,0
	c0.99,0,1.8,0.81,1.8,1.8v11.12C85.95,97.83,85.14,98.63,84.15,98.63z"/>
<circle class="st11" cx="214.71" cy="125.64" r="9.46"/>
<circle class="st12" cx="39.74" cy="142.29" r="7.72"/>
</svg>
